<?xml version="1.0" encoding="UTF-8" standalone="no"?><svg xmlns="http://www.w3.org/2000/svg" xmlns:xlink="http://www.w3.org/1999/xlink" contentStyleType="text/css" height="492px" preserveAspectRatio="none" style="width:2212px;height:492px;background:#FFFFFF;" version="1.1" viewBox="0 0 2212 492" width="2212px" zoomAndPan="magnify"><defs/><g><!--MD5=[88e31287715f4b373997665e80052329]
class IRepositoryBase--><g id="elem_IRepositoryBase"><rect codeLine="5" fill="#F1F1F1" height="136.0469" id="IRepositoryBase" rx="2.5" ry="2.5" style="stroke:#181818;stroke-width:0.5;" width="473" x="7" y="10"/><ellipse cx="181.75" cy="26" fill="#B4A7E5" rx="11" ry="11" style="stroke:#181818;stroke-width:1.0;"/><path d="M182.7031,22.6406 L182.7031,29.2969 L184.4219,29.2969 Q185.0313,29.2969 185.2969,29.5313 Q185.5625,29.7656 185.5625,30.1563 Q185.5625,30.5313 185.2969,30.7656 Q185.0313,31 184.4219,31 L179.2813,31 Q178.6719,31 178.4063,30.7656 Q178.1406,30.5313 178.1406,30.1406 Q178.1406,29.7656 178.4063,29.5313 Q178.6719,29.2969 179.2813,29.2969 L181,29.2969 L181,22.6406 L179.2813,22.6406 Q178.6719,22.6406 178.4063,22.4063 Q178.1406,22.1719 178.1406,21.7813 Q178.1406,21.4063 178.4063,21.1719 Q178.6719,20.9375 179.2813,20.9375 L184.4219,20.9375 Q185.0313,20.9375 185.2969,21.1719 Q185.5625,21.4063 185.5625,21.7813 Q185.5625,22.1719 185.2969,22.4063 Q185.0313,22.6406 184.4219,22.6406 L182.7031,22.6406 Z " fill="#000000"/><text fill="#000000" font-family="sans-serif" font-size="14" font-style="italic" lengthAdjust="spacing" textLength="104" x="202.25" y="31.7285">IRepositoryBase</text><rect fill="#FFFFFF" height="17.0938" style="stroke:#181818;stroke-width:1.0;stroke-dasharray:2.0,2.0;" width="9" x="474" y="7"/><text fill="#000000" font-family="sans-serif" font-size="12" font-style="italic" lengthAdjust="spacing" textLength="7" x="475" y="20.457">T</text><line style="stroke:#181818;stroke-width:0.5;" x1="8" x2="479" y1="42" y2="42"/><line style="stroke:#181818;stroke-width:0.5;" x1="8" x2="479" y1="50" y2="50"/><text fill="#000000" font-family="sans-serif" font-size="14" lengthAdjust="spacing" textLength="151" x="13" y="68.5332">IQueryable&lt;T&gt; FindAll()</text><text fill="#000000" font-family="sans-serif" font-size="14" lengthAdjust="spacing" textLength="461" x="13" y="86.1426">IQueryable&lt;T&gt; FindByCondition(Expression&lt;Func&lt;T, bool&gt;&gt; expression)</text><text fill="#000000" font-family="sans-serif" font-size="14" lengthAdjust="spacing" textLength="130" x="13" y="103.752">void Create(T entity)</text><text fill="#000000" font-family="sans-serif" font-size="14" lengthAdjust="spacing" textLength="132" x="13" y="121.3613">void Update(T entity)</text><text fill="#000000" font-family="sans-serif" font-size="14" lengthAdjust="spacing" textLength="128" x="13" y="138.9707">void Delete(T entity)</text></g><!--MD5=[24250dcf29556967a5b2a745628c91c5]
class IRepositoryWrapper--><g id="elem_IRepositoryWrapper"><rect codeLine="14" fill="#F1F1F1" height="100.8281" id="IRepositoryWrapper" rx="2.5" ry="2.5" style="stroke:#181818;stroke-width:0.5;" width="299" x="1026" y="27.5"/><ellipse cx="1107.25" cy="43.5" fill="#B4A7E5" rx="11" ry="11" style="stroke:#181818;stroke-width:1.0;"/><path d="M1108.2031,40.1406 L1108.2031,46.7969 L1109.9219,46.7969 Q1110.5313,46.7969 1110.7969,47.0313 Q1111.0625,47.2656 1111.0625,47.6563 Q1111.0625,48.0313 1110.7969,48.2656 Q1110.5313,48.5 1109.9219,48.5 L1104.7813,48.5 Q1104.1719,48.5 1103.9063,48.2656 Q1103.6406,48.0313 1103.6406,47.6406 Q1103.6406,47.2656 1103.9063,47.0313 Q1104.1719,46.7969 1104.7813,46.7969 L1106.5,46.7969 L1106.5,40.1406 L1104.7813,40.1406 Q1104.1719,40.1406 1103.9063,39.9063 Q1103.6406,39.6719 1103.6406,39.2813 Q1103.6406,38.9063 1103.9063,38.6719 Q1104.1719,38.4375 1104.7813,38.4375 L1109.9219,38.4375 Q1110.5313,38.4375 1110.7969,38.6719 Q1111.0625,38.9063 1111.0625,39.2813 Q1111.0625,39.6719 1110.7969,39.9063 Q1110.5313,40.1406 1109.9219,40.1406 L1108.2031,40.1406 Z " fill="#000000"/><text fill="#000000" font-family="sans-serif" font-size="14" font-style="italic" lengthAdjust="spacing" textLength="128" x="1127.75" y="49.2285">IRepositoryWrapper</text><line style="stroke:#181818;stroke-width:0.5;" x1="1027" x2="1324" y1="59.5" y2="59.5"/><text fill="#000000" font-family="sans-serif" font-size="14" lengthAdjust="spacing" textLength="287" x="1032" y="78.0332">«property» {readonly} IEntityRepository Entity</text><text fill="#000000" font-family="sans-serif" font-size="14" lengthAdjust="spacing" textLength="12" x="1032" y="95.6426">...</text><line style="stroke:#181818;stroke-width:0.5;" x1="1027" x2="1324" y1="102.7188" y2="102.7188"/><text fill="#000000" font-family="sans-serif" font-size="14" lengthAdjust="spacing" textLength="115" x="1032" y="121.252">Task SaveAsync()</text></g><!--MD5=[7ae152f06d8034b3923e1ed7c142b6ba]
class IEntityRepository--><g id="elem_IEntityRepository"><rect codeLine="20" fill="#F1F1F1" height="136.0469" id="IEntityRepository" rx="2.5" ry="2.5" style="stroke:#181818;stroke-width:0.5;" width="557" x="427" y="223.5"/><ellipse cx="647.75" cy="239.5" fill="#B4A7E5" rx="11" ry="11" style="stroke:#181818;stroke-width:1.0;"/><path d="M648.7031,236.1406 L648.7031,242.7969 L650.4219,242.7969 Q651.0313,242.7969 651.2969,243.0313 Q651.5625,243.2656 651.5625,243.6563 Q651.5625,244.0313 651.2969,244.2656 Q651.0313,244.5 650.4219,244.5 L645.2813,244.5 Q644.6719,244.5 644.4063,244.2656 Q644.1406,244.0313 644.1406,243.6406 Q644.1406,243.2656 644.4063,243.0313 Q644.6719,242.7969 645.2813,242.7969 L647,242.7969 L647,236.1406 L645.2813,236.1406 Q644.6719,236.1406 644.4063,235.9063 Q644.1406,235.6719 644.1406,235.2813 Q644.1406,234.9063 644.4063,234.6719 Q644.6719,234.4375 645.2813,234.4375 L650.4219,234.4375 Q651.0313,234.4375 651.2969,234.6719 Q651.5625,234.9063 651.5625,235.2813 Q651.5625,235.6719 651.2969,235.9063 Q651.0313,236.1406 650.4219,236.1406 L648.7031,236.1406 Z " fill="#000000"/><text fill="#000000" font-family="sans-serif" font-size="14" font-style="italic" lengthAdjust="spacing" textLength="107" x="668.25" y="245.2285">IEntityRepository</text><line style="stroke:#181818;stroke-width:0.5;" x1="428" x2="983" y1="255.5" y2="255.5"/><line style="stroke:#181818;stroke-width:0.5;" x1="428" x2="983" y1="263.5" y2="263.5"/><text fill="#000000" font-family="sans-serif" font-size="14" lengthAdjust="spacing" textLength="545" x="433" y="282.0332">Task&lt;PagedList&lt;EntityForView&gt;&gt; GetEntities(int userId, EntityParameters parameters)</text><text fill="#000000" font-family="sans-serif" font-size="14" lengthAdjust="spacing" textLength="328" x="433" y="299.6426">Task&lt;EntityForView&gt; GetEntityById(int userId, int id)</text><text fill="#000000" font-family="sans-serif" font-size="14" lengthAdjust="spacing" textLength="349" x="433" y="317.252">Task&lt;EntityForView&gt; CreateEntity(EntityForView entity)</text><text fill="#000000" font-family="sans-serif" font-size="14" lengthAdjust="spacing" textLength="287" x="433" y="334.8613">Task UpdateEntity(int id, EntityForView entity)</text><text fill="#000000" font-family="sans-serif" font-size="14" lengthAdjust="spacing" textLength="217" x="433" y="352.4707">Task DeleteEntity(itn userId, int id)</text></g><!--MD5=[0e670951ede5dd005a24f21510d87c07]
class RepositoryBase--><g id="elem_RepositoryBase"><rect codeLine="30" fill="#F1F1F1" height="65.6094" id="RepositoryBase" rx="2.5" ry="2.5" style="stroke:#181818;stroke-width:0.5;" width="296" x="95.5" y="258.5"/><ellipse cx="165.25" cy="274.5" fill="#A9DCDF" rx="11" ry="11" style="stroke:#181818;stroke-width:1.0;"/><path d="M167.4375,276.2656 L163.2969,276.2656 L162.875,277.2969 L163.2969,277.2969 Q163.9063,277.2969 164.1719,277.5313 Q164.4375,277.7656 164.4375,278.1563 Q164.4375,278.5313 164.1719,278.7656 Q163.9063,279 163.2969,279 L161,279 Q160.3906,279 160.1406,278.7656 Q159.875,278.5313 159.875,278.1406 Q159.875,277.7656 160.1563,277.5313 Q160.4219,277.2813 161.0469,277.2969 L163.7188,270.6406 L162.6094,270.6406 Q162,270.6406 161.7344,270.4063 Q161.4688,270.1719 161.4688,269.7813 Q161.4688,269.4063 161.7344,269.1719 Q162,268.9375 162.6094,268.9375 L166.2813,268.9375 L169.6719,277.2969 Q170.2656,277.2969 170.4531,277.4375 Q170.8438,277.7031 170.8438,278.1563 Q170.8438,278.5313 170.5781,278.7656 Q170.3281,279 169.7188,279 L167.4219,279 Q166.8125,279 166.5469,278.7656 Q166.2813,278.5313 166.2813,278.1406 Q166.2813,277.7656 166.5469,277.5313 Q166.8125,277.2969 167.4219,277.2969 L167.8438,277.2969 L167.4375,276.2656 Z M166.7188,274.5625 L165.3594,271.1875 L163.9844,274.5625 L166.7188,274.5625 Z " fill="#000000"/><text fill="#000000" font-family="sans-serif" font-size="14" font-style="italic" lengthAdjust="spacing" textLength="100" x="185.75" y="280.2285">RepositoryBase</text><rect fill="#FFFFFF" height="17.0938" style="stroke:#181818;stroke-width:1.0;stroke-dasharray:2.0,2.0;" width="46" x="348.5" y="255.5"/><text fill="#000000" font-family="sans-serif" font-size="12" font-style="italic" lengthAdjust="spacing" textLength="44" x="349.5" y="268.957">T : class</text><line style="stroke:#181818;stroke-width:0.5;" x1="96.5" x2="390.5" y1="290.5" y2="290.5"/><polygon fill="none" points="106.5,299.8047,110.5,303.8047,106.5,307.8047,102.5,303.8047" style="stroke:#B38D22;stroke-width:1.0;"/><text fill="#000000" font-family="sans-serif" font-size="14" lengthAdjust="spacing" textLength="270" x="115.5" y="309.0332">«property» NotkaDatabaseContext Context</text><line style="stroke:#181818;stroke-width:0.5;" x1="96.5" x2="390.5" y1="316.1094" y2="316.1094"/></g><!--MD5=[849d32d0a9271671a253e43a6d9eec8c]
class RepositoryWrapper--><g id="elem_RepositoryWrapper"><rect codeLine="34" fill="#F1F1F1" height="118.4375" id="RepositoryWrapper" rx="2.5" ry="2.5" style="stroke:#181818;stroke-width:0.5;" width="313" x="1019" y="232.5"/><ellipse cx="1109.75" cy="248.5" fill="#ADD1B2" rx="11" ry="11" style="stroke:#181818;stroke-width:1.0;"/><path d="M1112.5156,244.375 Q1112.6719,244.1563 1112.8594,244.0469 Q1113.0469,243.9375 1113.2656,243.9375 Q1113.6406,243.9375 1113.875,244.2031 Q1114.1094,244.4531 1114.1094,245.0625 L1114.1094,246.5156 Q1114.1094,247.125 1113.875,247.3906 Q1113.6406,247.6563 1113.2656,247.6563 Q1112.9219,247.6563 1112.7188,247.4531 Q1112.5156,247.2656 1112.4063,246.75 Q1112.3594,246.3906 1112.1719,246.2031 Q1111.8438,245.8281 1111.2344,245.6094 Q1110.625,245.3906 1110,245.3906 Q1109.2344,245.3906 1108.5938,245.7188 Q1107.9688,246.0469 1107.4688,246.7969 Q1106.9844,247.5469 1106.9844,248.5781 L1106.9844,249.6719 Q1106.9844,250.9063 1107.875,251.7344 Q1108.7656,252.5469 1110.3594,252.5469 Q1111.2969,252.5469 1111.9531,252.2969 Q1112.3438,252.1406 1112.7656,251.7031 Q1113.0313,251.4375 1113.1719,251.3594 Q1113.3281,251.2813 1113.5313,251.2813 Q1113.8594,251.2813 1114.1094,251.5469 Q1114.375,251.7969 1114.375,252.1406 Q1114.375,252.4844 1114.0313,252.8906 Q1113.5313,253.4688 1112.7344,253.7969 Q1111.6563,254.25 1110.3594,254.25 Q1108.8438,254.25 1107.6406,253.625 Q1106.6563,253.125 1105.9688,252.0625 Q1105.2813,250.9844 1105.2813,249.7031 L1105.2813,248.5469 Q1105.2813,247.2188 1105.8906,246.0781 Q1106.5156,244.9219 1107.6094,244.3125 Q1108.7031,243.6875 1109.9375,243.6875 Q1110.6719,243.6875 1111.3125,243.8594 Q1111.9688,244.0156 1112.5156,244.375 Z " fill="#000000"/><text fill="#000000" font-family="sans-serif" font-size="14" lengthAdjust="spacing" textLength="123" x="1130.25" y="254.2285">RepositoryWrapper</text><line style="stroke:#181818;stroke-width:0.5;" x1="1020" x2="1331" y1="264.5" y2="264.5"/><rect fill="none" height="6" style="stroke:#C82930;stroke-width:1.0;" width="6" x="1027" y="275.8047"/><text fill="#000000" font-family="sans-serif" font-size="14" lengthAdjust="spacing" textLength="202" x="1039" y="283.0332">NotkaDatabaseContext _context</text><rect fill="none" height="6" style="stroke:#C82930;stroke-width:1.0;" width="6" x="1027" y="293.4141"/><text fill="#000000" font-family="sans-serif" font-size="14" lengthAdjust="spacing" textLength="152" x="1039" y="300.6426">IEntityRepository _entity</text><text fill="#000000" font-family="sans-serif" font-size="14" lengthAdjust="spacing" textLength="12" x="1039" y="318.252">...</text><ellipse cx="1030" cy="331.6328" fill="none" rx="3" ry="3" style="stroke:#038048;stroke-width:1.0;"/><text fill="#000000" font-family="sans-serif" font-size="14" lengthAdjust="spacing" textLength="287" x="1039" y="335.8613">«property» {readonly} IEntityRepository Entity</text><line style="stroke:#181818;stroke-width:0.5;" x1="1020" x2="1331" y1="342.9375" y2="342.9375"/></g><!--MD5=[7b442112a51f2249a13a8c5ea24726ad]
class EntityRepository--><g id="elem_EntityRepository"><rect codeLine="41" fill="#F1F1F1" height="48" id="EntityRepository" rx="2.5" ry="2.5" style="stroke:#181818;stroke-width:0.5;" width="135" x="407" y="437"/><ellipse cx="422" cy="453" fill="#ADD1B2" rx="11" ry="11" style="stroke:#181818;stroke-width:1.0;"/><path d="M424.7656,448.875 Q424.9219,448.6563 425.1094,448.5469 Q425.2969,448.4375 425.5156,448.4375 Q425.8906,448.4375 426.125,448.7031 Q426.3594,448.9531 426.3594,449.5625 L426.3594,451.0156 Q426.3594,451.625 426.125,451.8906 Q425.8906,452.1563 425.5156,452.1563 Q425.1719,452.1563 424.9688,451.9531 Q424.7656,451.7656 424.6563,451.25 Q424.6094,450.8906 424.4219,450.7031 Q424.0938,450.3281 423.4844,450.1094 Q422.875,449.8906 422.25,449.8906 Q421.4844,449.8906 420.8438,450.2188 Q420.2188,450.5469 419.7188,451.2969 Q419.2344,452.0469 419.2344,453.0781 L419.2344,454.1719 Q419.2344,455.4063 420.125,456.2344 Q421.0156,457.0469 422.6094,457.0469 Q423.5469,457.0469 424.2031,456.7969 Q424.5938,456.6406 425.0156,456.2031 Q425.2813,455.9375 425.4219,455.8594 Q425.5781,455.7813 425.7813,455.7813 Q426.1094,455.7813 426.3594,456.0469 Q426.625,456.2969 426.625,456.6406 Q426.625,456.9844 426.2813,457.3906 Q425.7813,457.9688 424.9844,458.2969 Q423.9063,458.75 422.6094,458.75 Q421.0938,458.75 419.8906,458.125 Q418.9063,457.625 418.2188,456.5625 Q417.5313,455.4844 417.5313,454.2031 L417.5313,453.0469 Q417.5313,451.7188 418.1406,450.5781 Q418.7656,449.4219 419.8594,448.8125 Q420.9531,448.1875 422.1875,448.1875 Q422.9219,448.1875 423.5625,448.3594 Q424.2188,448.5156 424.7656,448.875 Z " fill="#000000"/><text fill="#000000" font-family="sans-serif" font-size="14" lengthAdjust="spacing" textLength="103" x="436" y="458.7285">EntityRepository</text><line style="stroke:#181818;stroke-width:0.5;" x1="408" x2="541" y1="469" y2="469"/><line style="stroke:#181818;stroke-width:0.5;" x1="408" x2="541" y1="477" y2="477"/></g><!--MD5=[20300aaea365e850750ab826e6ff7994]
class AGetParameters--><g id="elem_AGetParameters"><rect codeLine="44" fill="#F1F1F1" height="118.4375" id="AGetParameters" rx="2.5" ry="2.5" style="stroke:#181818;stroke-width:0.5;" width="200" x="1360.5" y="19"/><ellipse cx="1403.85" cy="35" fill="#A9DCDF" rx="11" ry="11" style="stroke:#181818;stroke-width:1.0;"/><path d="M1406.0375,36.7656 L1401.8969,36.7656 L1401.475,37.7969 L1401.8969,37.7969 Q1402.5063,37.7969 1402.7719,38.0313 Q1403.0375,38.2656 1403.0375,38.6563 Q1403.0375,39.0313 1402.7719,39.2656 Q1402.5063,39.5 1401.8969,39.5 L1399.6,39.5 Q1398.9906,39.5 1398.7406,39.2656 Q1398.475,39.0313 1398.475,38.6406 Q1398.475,38.2656 1398.7563,38.0313 Q1399.0219,37.7813 1399.6469,37.7969 L1402.3188,31.1406 L1401.2094,31.1406 Q1400.6,31.1406 1400.3344,30.9063 Q1400.0688,30.6719 1400.0688,30.2813 Q1400.0688,29.9063 1400.3344,29.6719 Q1400.6,29.4375 1401.2094,29.4375 L1404.8813,29.4375 L1408.2719,37.7969 Q1408.8656,37.7969 1409.0531,37.9375 Q1409.4438,38.2031 1409.4438,38.6563 Q1409.4438,39.0313 1409.1781,39.2656 Q1408.9281,39.5 1408.3188,39.5 L1406.0219,39.5 Q1405.4125,39.5 1405.1469,39.2656 Q1404.8813,39.0313 1404.8813,38.6406 Q1404.8813,38.2656 1405.1469,38.0313 Q1405.4125,37.7969 1406.0219,37.7969 L1406.4438,37.7969 L1406.0375,36.7656 Z M1405.3188,35.0625 L1403.9594,31.6875 L1402.5844,35.0625 L1405.3188,35.0625 Z " fill="#000000"/><text fill="#000000" font-family="sans-serif" font-size="14" font-style="italic" lengthAdjust="spacing" textLength="105" x="1424.15" y="40.7285">AGetParameters</text><line style="stroke:#181818;stroke-width:0.5;" x1="1361.5" x2="1559.5" y1="51" y2="51"/><rect fill="none" height="6" style="stroke:#C82930;stroke-width:1.0;" width="6" x="1368.5" y="62.3047"/><text fill="#000000" font-family="sans-serif" font-size="14" lengthAdjust="spacing" textLength="151" x="1380.5" y="69.5332">{const} int maxPageSize</text><rect fill="none" height="6" style="stroke:#C82930;stroke-width:1.0;" width="6" x="1368.5" y="79.9141"/><text fill="#000000" font-family="sans-serif" font-size="14" lengthAdjust="spacing" textLength="85" x="1380.5" y="87.1426">int _pageSize</text><ellipse cx="1371.5" cy="100.5234" fill="none" rx="3" ry="3" style="stroke:#038048;stroke-width:1.0;"/><text fill="#000000" font-family="sans-serif" font-size="14" lengthAdjust="spacing" textLength="174" x="1380.5" y="104.752">«property» int PageNumber</text><ellipse cx="1371.5" cy="118.1328" fill="none" rx="3" ry="3" style="stroke:#038048;stroke-width:1.0;"/><text fill="#000000" font-family="sans-serif" font-size="14" lengthAdjust="spacing" textLength="151" x="1380.5" y="122.3613">«property» int PageSize</text><line style="stroke:#181818;stroke-width:0.5;" x1="1361.5" x2="1559.5" y1="129.4375" y2="129.4375"/></g><!--MD5=[2ddaf041c5ab77aafb0849420b6d6da8]
class EntityParameters--><g id="elem_EntityParameters"><rect codeLine="51" fill="#F1F1F1" height="48" id="EntityParameters" rx="2.5" ry="2.5" style="stroke:#181818;stroke-width:0.5;" width="140" x="1390.5" y="267.5"/><ellipse cx="1405.5" cy="283.5" fill="#ADD1B2" rx="11" ry="11" style="stroke:#181818;stroke-width:1.0;"/><path d="M1408.2656,279.375 Q1408.4219,279.1563 1408.6094,279.0469 Q1408.7969,278.9375 1409.0156,278.9375 Q1409.3906,278.9375 1409.625,279.2031 Q1409.8594,279.4531 1409.8594,280.0625 L1409.8594,281.5156 Q1409.8594,282.125 1409.625,282.3906 Q1409.3906,282.6563 1409.0156,282.6563 Q1408.6719,282.6563 1408.4688,282.4531 Q1408.2656,282.2656 1408.1563,281.75 Q1408.1094,281.3906 1407.9219,281.2031 Q1407.5938,280.8281 1406.9844,280.6094 Q1406.375,280.3906 1405.75,280.3906 Q1404.9844,280.3906 1404.3438,280.7188 Q1403.7188,281.0469 1403.2188,281.7969 Q1402.7344,282.5469 1402.7344,283.5781 L1402.7344,284.6719 Q1402.7344,285.9063 1403.625,286.7344 Q1404.5156,287.5469 1406.1094,287.5469 Q1407.0469,287.5469 1407.7031,287.2969 Q1408.0938,287.1406 1408.5156,286.7031 Q1408.7813,286.4375 1408.9219,286.3594 Q1409.0781,286.2813 1409.2813,286.2813 Q1409.6094,286.2813 1409.8594,286.5469 Q1410.125,286.7969 1410.125,287.1406 Q1410.125,287.4844 1409.7813,287.8906 Q1409.2813,288.4688 1408.4844,288.7969 Q1407.4063,289.25 1406.1094,289.25 Q1404.5938,289.25 1403.3906,288.625 Q1402.4063,288.125 1401.7188,287.0625 Q1401.0313,285.9844 1401.0313,284.7031 L1401.0313,283.5469 Q1401.0313,282.2188 1401.6406,281.0781 Q1402.2656,279.9219 1403.3594,279.3125 Q1404.4531,278.6875 1405.6875,278.6875 Q1406.4219,278.6875 1407.0625,278.8594 Q1407.7188,279.0156 1408.2656,279.375 Z " fill="#000000"/><text fill="#000000" font-family="sans-serif" font-size="14" lengthAdjust="spacing" textLength="108" x="1419.5" y="289.2285">EntityParameters</text><line style="stroke:#181818;stroke-width:0.5;" x1="1391.5" x2="1529.5" y1="299.5" y2="299.5"/><line style="stroke:#181818;stroke-width:0.5;" x1="1391.5" x2="1529.5" y1="307.5" y2="307.5"/></g><!--MD5=[3b6b62fa67784ace47de8c7a99f52a9c]
class PagedList--><g id="elem_PagedList"><rect codeLine="54" fill="#F1F1F1" height="171.2656" id="PagedList" rx="2.5" ry="2.5" style="stroke:#181818;stroke-width:0.5;" width="635" x="1566" y="206"/><ellipse cx="1842.25" cy="222" fill="#ADD1B2" rx="11" ry="11" style="stroke:#181818;stroke-width:1.0;"/><path d="M1845.0156,217.875 Q1845.1719,217.6563 1845.3594,217.5469 Q1845.5469,217.4375 1845.7656,217.4375 Q1846.1406,217.4375 1846.375,217.7031 Q1846.6094,217.9531 1846.6094,218.5625 L1846.6094,220.0156 Q1846.6094,220.625 1846.375,220.8906 Q1846.1406,221.1563 1845.7656,221.1563 Q1845.4219,221.1563 1845.2188,220.9531 Q1845.0156,220.7656 1844.9063,220.25 Q1844.8594,219.8906 1844.6719,219.7031 Q1844.3438,219.3281 1843.7344,219.1094 Q1843.125,218.8906 1842.5,218.8906 Q1841.7344,218.8906 1841.0938,219.2188 Q1840.4688,219.5469 1839.9688,220.2969 Q1839.4844,221.0469 1839.4844,222.0781 L1839.4844,223.1719 Q1839.4844,224.4063 1840.375,225.2344 Q1841.2656,226.0469 1842.8594,226.0469 Q1843.7969,226.0469 1844.4531,225.7969 Q1844.8438,225.6406 1845.2656,225.2031 Q1845.5313,224.9375 1845.6719,224.8594 Q1845.8281,224.7813 1846.0313,224.7813 Q1846.3594,224.7813 1846.6094,225.0469 Q1846.875,225.2969 1846.875,225.6406 Q1846.875,225.9844 1846.5313,226.3906 Q1846.0313,226.9688 1845.2344,227.2969 Q1844.1563,227.75 1842.8594,227.75 Q1841.3438,227.75 1840.1406,227.125 Q1839.1563,226.625 1838.4688,225.5625 Q1837.7813,224.4844 1837.7813,223.2031 L1837.7813,222.0469 Q1837.7813,220.7188 1838.3906,219.5781 Q1839.0156,218.4219 1840.1094,217.8125 Q1841.2031,217.1875 1842.4375,217.1875 Q1843.1719,217.1875 1843.8125,217.3594 Q1844.4688,217.5156 1845.0156,217.875 Z " fill="#000000"/><text fill="#000000" font-family="sans-serif" font-size="14" lengthAdjust="spacing" textLength="63" x="1862.75" y="227.7285">PagedList</text><rect fill="#FFFFFF" height="17.0938" style="stroke:#181818;stroke-width:1.0;stroke-dasharray:2.0,2.0;" width="9" x="2195" y="203"/><text fill="#000000" font-family="sans-serif" font-size="12" font-style="italic" lengthAdjust="spacing" textLength="7" x="2196" y="216.457">T</text><line style="stroke:#181818;stroke-width:0.5;" x1="1567" x2="2200" y1="238" y2="238"/><ellipse cx="1577" cy="252.3047" fill="none" rx="3" ry="3" style="stroke:#038048;stroke-width:1.0;"/><text fill="#000000" font-family="sans-serif" font-size="14" lengthAdjust="spacing" textLength="173" x="1586" y="256.5332">«property» int CurrentPage</text><ellipse cx="1577" cy="269.9141" fill="none" rx="3" ry="3" style="stroke:#038048;stroke-width:1.0;"/><text fill="#000000" font-family="sans-serif" font-size="14" lengthAdjust="spacing" textLength="164" x="1586" y="274.1426">«property» int TotalPages</text><ellipse cx="1577" cy="287.5234" fill="none" rx="3" ry="3" style="stroke:#038048;stroke-width:1.0;"/><text fill="#000000" font-family="sans-serif" font-size="14" lengthAdjust="spacing" textLength="151" x="1586" y="291.752">«property» int PageSize</text><ellipse cx="1577" cy="305.1328" fill="none" rx="3" ry="3" style="stroke:#038048;stroke-width:1.0;"/><text fill="#000000" font-family="sans-serif" font-size="14" lengthAdjust="spacing" textLength="162" x="1586" y="309.3613">«property» int TotalCount</text><ellipse cx="1577" cy="322.7422" fill="none" rx="3" ry="3" style="stroke:#038048;stroke-width:1.0;"/><text fill="#000000" font-family="sans-serif" font-size="14" lengthAdjust="spacing" textLength="183" x="1586" y="326.9707">«property» bool HasPrevious</text><ellipse cx="1577" cy="340.3516" fill="none" rx="3" ry="3" style="stroke:#038048;stroke-width:1.0;"/><text fill="#000000" font-family="sans-serif" font-size="14" lengthAdjust="spacing" textLength="155" x="1586" y="344.5801">«property» bool HasNext</text><line style="stroke:#181818;stroke-width:0.5;" x1="1567" x2="2200" y1="351.6563" y2="351.6563"/><ellipse cx="1577" cy="365.9609" fill="#84BE84" rx="3" ry="3" style="stroke:#038048;stroke-width:1.0;"/><text fill="#000000" font-family="sans-serif" font-size="14" lengthAdjust="spacing" text-decoration="underline" textLength="609" x="1586" y="370.1895">async Task&lt;PagedList&lt;T&gt;&gt; CreateAsync (IQueryable&lt;T&gt; source, int pageNumber, int pageSize)</text></g><!--MD5=[3d4177ac58b4411586d067f34e84928f]
class List--><g id="elem_List"><rect codeLine="64" fill="#F1F1F1" height="48" id="List" rx="2.5" ry="2.5" style="stroke:#181818;stroke-width:0.5;" width="65" x="1851" y="54"/><ellipse cx="1866" cy="70" fill="#ADD1B2" rx="11" ry="11" style="stroke:#181818;stroke-width:1.0;"/><path d="M1868.7656,65.875 Q1868.9219,65.6563 1869.1094,65.5469 Q1869.2969,65.4375 1869.5156,65.4375 Q1869.8906,65.4375 1870.125,65.7031 Q1870.3594,65.9531 1870.3594,66.5625 L1870.3594,68.0156 Q1870.3594,68.625 1870.125,68.8906 Q1869.8906,69.1563 1869.5156,69.1563 Q1869.1719,69.1563 1868.9688,68.9531 Q1868.7656,68.7656 1868.6563,68.25 Q1868.6094,67.8906 1868.4219,67.7031 Q1868.0938,67.3281 1867.4844,67.1094 Q1866.875,66.8906 1866.25,66.8906 Q1865.4844,66.8906 1864.8438,67.2188 Q1864.2188,67.5469 1863.7188,68.2969 Q1863.2344,69.0469 1863.2344,70.0781 L1863.2344,71.1719 Q1863.2344,72.4063 1864.125,73.2344 Q1865.0156,74.0469 1866.6094,74.0469 Q1867.5469,74.0469 1868.2031,73.7969 Q1868.5938,73.6406 1869.0156,73.2031 Q1869.2813,72.9375 1869.4219,72.8594 Q1869.5781,72.7813 1869.7813,72.7813 Q1870.1094,72.7813 1870.3594,73.0469 Q1870.625,73.2969 1870.625,73.6406 Q1870.625,73.9844 1870.2813,74.3906 Q1869.7813,74.9688 1868.9844,75.2969 Q1867.9063,75.75 1866.6094,75.75 Q1865.0938,75.75 1863.8906,75.125 Q1862.9063,74.625 1862.2188,73.5625 Q1861.5313,72.4844 1861.5313,71.2031 L1861.5313,70.0469 Q1861.5313,68.7188 1862.1406,67.5781 Q1862.7656,66.4219 1863.8594,65.8125 Q1864.9531,65.1875 1866.1875,65.1875 Q1866.9219,65.1875 1867.5625,65.3594 Q1868.2188,65.5156 1868.7656,65.875 Z " fill="#000000"/><text fill="#000000" font-family="sans-serif" font-size="14" lengthAdjust="spacing" textLength="22" x="1880" y="75.7285">List</text><rect fill="#FFFFFF" height="17.0938" style="stroke:#181818;stroke-width:1.0;stroke-dasharray:2.0,2.0;" width="9" x="1910" y="51"/><text fill="#000000" font-family="sans-serif" font-size="12" font-style="italic" lengthAdjust="spacing" textLength="7" x="1911" y="64.457">T</text><line style="stroke:#181818;stroke-width:0.5;" x1="1852" x2="1915" y1="86" y2="86"/><line style="stroke:#181818;stroke-width:0.5;" x1="1852" x2="1915" y1="94" y2="94"/></g><!--MD5=[07accb6df1ad6197a5e20960de79550b]
reverse link IRepositoryBase to RepositoryBase--><g id="link_IRepositoryBase_RepositoryBase"><path codeLine="4" d="M243.5,166.55 C243.5,199.05 243.5,233.91 243.5,258.35 " fill="none" id="IRepositoryBase-backto-RepositoryBase" style="stroke:#181818;stroke-width:1.0;stroke-dasharray:7.0,7.0;"/><polygon fill="none" points="236.5,166.21,243.5,146.21,250.5,166.21,236.5,166.21" style="stroke:#181818;stroke-width:1.0;"/></g><!--MD5=[b5a96dd4578c2754b61f4b719d5fbc02]
reverse link IRepositoryWrapper to RepositoryWrapper--><g id="link_IRepositoryWrapper_RepositoryWrapper"><path codeLine="5" d="M1175.5,148.87 C1175.5,175.88 1175.5,206.42 1175.5,232.22 " fill="none" id="IRepositoryWrapper-backto-RepositoryWrapper" style="stroke:#181818;stroke-width:1.0;stroke-dasharray:7.0,7.0;"/><polygon fill="none" points="1168.5,148.59,1175.5,128.59,1182.5,148.59,1168.5,148.59" style="stroke:#181818;stroke-width:1.0;"/></g><!--MD5=[50c4dcb721ed33588a674820d44880f4]
reverse link RepositoryBase to EntityRepository--><g id="link_RepositoryBase_EntityRepository"><path codeLine="6" d="M304.02,336.38 C348.43,368.59 406.99,411.05 442.64,436.89 " fill="none" id="RepositoryBase-backto-EntityRepository" style="stroke:#181818;stroke-width:1.0;stroke-dasharray:7.0,7.0;"/><polygon fill="none" points="299.85,342.01,287.77,324.6,308.07,330.67,299.85,342.01" style="stroke:#181818;stroke-width:1.0;"/></g><!--MD5=[7fd165928493493a92d1da6661b324fc]
reverse link IEntityRepository to EntityRepository--><g id="link_IEntityRepository_EntityRepository"><path codeLine="7" d="M596.33,371.66 C563.47,395.48 529.93,419.81 506.38,436.88 " fill="none" id="IEntityRepository-backto-EntityRepository" style="stroke:#181818;stroke-width:1.0;stroke-dasharray:7.0,7.0;"/><polygon fill="none" points="592.57,365.74,612.87,359.66,600.79,377.07,592.57,365.74" style="stroke:#181818;stroke-width:1.0;"/></g><!--MD5=[c983aeb2ab4717bc3a94bef8b4040ec1]
reverse link AGetParameters to EntityParameters--><g id="link_AGetParameters_EntityParameters"><path codeLine="8" d="M1460.5,157.21 C1460.5,196.33 1460.5,240.85 1460.5,267.26 " fill="none" id="AGetParameters-backto-EntityParameters" style="stroke:#181818;stroke-width:1.0;stroke-dasharray:7.0,7.0;"/><polygon fill="none" points="1453.5,157.07,1460.5,137.07,1467.5,157.07,1453.5,157.07" style="stroke:#181818;stroke-width:1.0;"/></g><!--MD5=[ea68aa2ee3e5903f49305422017bf629]
reverse link List to PagedList--><g id="link_List_PagedList"><path codeLine="9" d="M1883.5,122.38 C1883.5,146.44 1883.5,177.21 1883.5,205.83 " fill="none" id="List-backto-PagedList" style="stroke:#181818;stroke-width:1.0;stroke-dasharray:7.0,7.0;"/><polygon fill="none" points="1876.5,122.04,1883.5,102.04,1890.5,122.04,1876.5,122.04" style="stroke:#181818;stroke-width:1.0;"/></g><!--MD5=[7dc64747880849d89e814194f3a29977]
@startuml

!include NotkaApiRepositoryClasses.puml

IRepositoryBase <|.. RepositoryBase
IRepositoryWrapper <|.. RepositoryWrapper
RepositoryBase <|.. EntityRepository
IEntityRepository <|.. EntityRepository
AGetParameters <|.. EntityParameters
List <|.. PagedList


@enduml

@startuml




interface IRepositoryBase<T>{
    IQueryable<T> FindAll() 
    IQueryable<T> FindByCondition(Expression<Func<T, bool>> expression)
    void Create(T entity)
    void Update(T entity)
    void Delete(T entity)
}

interface IRepositoryWrapper{
    <<property>> {readonly} IEntityRepository Entity
    ...
    Task SaveAsync()
}

interface IEntityRepository{
    Task<PagedList<EntityForView>> GetEntities(int userId, EntityParameters parameters)
    Task<EntityForView> GetEntityById(int userId, int id)
    Task<EntityForView> CreateEntity(EntityForView entity)
    Task UpdateEntity(int id, EntityForView entity)
    Task DeleteEntity(itn userId, int id)
}


abstract class RepositoryBase<T : class>{
    # <<property>> NotkaDatabaseContext Context
}

class RepositoryWrapper{
    - NotkaDatabaseContext _context
    - IEntityRepository _entity
    ...
    + <<property>> {readonly} IEntityRepository Entity
}

class EntityRepository{
}

abstract class AGetParameters{
    - {const} int maxPageSize
    - int _pageSize
    + <<property>> int PageNumber
    + <<property>> int PageSize
}

class EntityParameters{
}

class PagedList<T>{
    + <<property>> int CurrentPage
    + <<property>> int TotalPages
    + <<property>> int PageSize
    + <<property>> int TotalCount
    + <<property>> bool HasPrevious
    + <<property>> bool HasNext
    + {static} async Task<PagedList<T>> CreateAsync (IQueryable<T> source, int pageNumber, int pageSize)
}

class List<T>{
}


IRepositoryBase <|.. RepositoryBase
IRepositoryWrapper <|.. RepositoryWrapper
RepositoryBase <|.. EntityRepository
IEntityRepository <|.. EntityRepository
AGetParameters <|.. EntityParameters
List <|.. PagedList


@enduml

PlantUML version 1.2022.7(Mon Aug 22 19:01:30 CEST 2022)
(GPL source distribution)
Java Runtime: OpenJDK Runtime Environment
JVM: OpenJDK 64-Bit Server VM
Default Encoding: Cp1250
Language: pl
Country: PL
--></g></svg>